<svg id="Artwork" xmlns="http://www.w3.org/2000/svg" viewBox="0 0 268.4513 92.6888"><title>partner</title><path d="M353.8633,430.3623a.23.23,0,0,0,0-.2968c-.4463-.4434-1.627-1.6211-2.0742-2.0664a.2228.2228,0,0,0-.2774-.0118c-.4258.4571-1.6562,1.6524-2.0849,2.0918a.2263.2263,0,0,0,.0087.27c.4356.4453,1.6377,1.6591,2.0762,2.0839a.2176.2176,0,0,0,.2774,0h.0214c.4258-.4248,1.6065-1.6289,2.0528-2.07" transform="translate(-163.48 -377.9649)" fill="#fff"/><path d="M205.9688,417.4029c0-.0083.1723-.1553.27-.084.0693.0439.0381.26.0381.26-.2408,1.7271-1.0767,8.0122-1.5137,16.1851-.0581,1.3369-.125,2.6807-.16,4.0186l-.0141.457.2651-.3477a6.7053,6.7053,0,0,1,5.459-2.3271,5.6326,5.6326,0,0,1,5.8569,5.0283,8.9082,8.9082,0,0,1-3.4287,7.9775,12.8725,12.8725,0,0,1-6.98,2.1934c-2.6972.0547-5.4424-.125-7.1894-1.57-.9888-.8262-1.8106-1.9336-2.021-5.0469-.0147-.2519-.0327-.5683-.0327-.876a6.4886,6.4886,0,0,1,.0327-.8349c.0171-.1875.04-.2569.1294-.2471.04.0166.0957.1436.1406.2588a2.0569,2.0569,0,0,0,.24.51c1.49,2.9306,6.6221,3.3691,8.3589,3.3388,3.6079-.0635,5.0933-1.1416,6.1841-2.73a3.95,3.95,0,0,0,.667-2.9893c-.28-1.45-1.3418-2.165-3.147-2.165a4.5813,4.5813,0,0,0-4.5571,4.788l-.0137.3663-.0141.8115c0,.2119-.0259.2656-.085.2793a.6715.6715,0,0,1-.3179-.084l-3.2353-1.8857a1.211,1.211,0,0,1-.3828-.3047.7048.7048,0,0,1-.1-.47c.0278-2.8672.07-6.122.166-8.1875.2148-4.1025.5469-8.1338,1.0088-12.0317a3.2916,3.2916,0,0,1,.1714-.6753,2.341,2.341,0,0,1,.4209-.456c0,.0151,3.7837-3.1587,3.7837-3.1587" transform="translate(-163.48 -377.9649)" fill="#fff"/><path d="M347.3438,437.4219c.7109-.5947,2.9687-2.5127,3.8613-3.2158.1133-.1153.1836-.1758.2168-.1475.0625.0322.0342.1846.0215.3311-.1426,2.9551-.2168,5.9179-.2168,8.7949v2.9639c.0742,1.3134.2851,2.0781.6777,2.3906a3.5437,3.5437,0,0,0,2.9209.4922l.2021-.02c.0684-.0166.2051-.0332.2325.02.0234.082-.208.2031-.334.2539l-.0117.0332a8.8618,8.8618,0,0,1-3.4024,1.0312l-.5371.02a4.1915,4.1915,0,0,1-2.58-1.1094l-.23-.2285a1.4545,1.4545,0,0,1-.3047-.377,3.6863,3.6863,0,0,1-.7774-2.3379c-.0341-1.0478.0088-6.6259.0586-8.3037a1.6,1.6,0,0,1,.0313-.3965.6424.6424,0,0,1,.1719-.1943" transform="translate(-163.48 -377.9649)" fill="#fff"/><path d="M313.6621,446.2012a4.5249,4.5249,0,0,1-3.3945.8936c-1.4737-.2012-2.3262-.8223-2.2969-1.6866.0352-.9248.7227-1.4326,2.0352-1.5039.9668-.0683,2.1836.6367,3.6562,2.0655l.1289.1191Zm31.6631-5.6084a5.6346,5.6346,0,0,0-5.8721-5.0283,6.6352,6.6352,0,0,0-5.4336,2.3271l-.28.3477.0195-.457c.0459-1.3379.0742-2.6817.1621-4.0186.4268-8.1729,1.2725-14.458,1.5107-16.1851,0,0,.0313-.2158-.06-.26-.0908-.0713-.2549.0757-.2549.084,0,0-3.7881,3.1738-3.7734,3.1587a2.28,2.28,0,0,0-.4122.456,1.9438,1.9438,0,0,0-.1875.6753c-.4521,3.8979-.791,7.9292-.9873,12.0317-.122,2.0655-.1728,5.32-.208,8.1875a.706.706,0,0,0,.1367.47,1.7646,1.7646,0,0,0,.3487.3047l3.2783,1.8857a.5356.5356,0,0,0,.2891.084c.0654-.0137.0937-.0674.0937-.2793v-.8115l.0205-.3663a4.5979,4.5979,0,0,1,4.5674-4.788c1.793,0,2.8789.7148,3.1543,2.165a4.0874,4.0874,0,0,1-.6621,2.9893c-1.1191,1.5888-2.5957,2.6669-6.2031,2.73-1.711.03-6.8692-.4082-8.3555-3.3388a1.3059,1.3059,0,0,1-.2031-.4219c-.0547-.1-.14-.3154-.2012-.33-.08-.0166-.0977.0967-.1055.2813a2.8711,2.8711,0,0,0-.0761.37,4.3528,4.3528,0,0,1-1.209,2.5517,5.0813,5.0813,0,0,1-3.4453.4795,17.3232,17.3232,0,0,1-2.6377-.6191l-.1719-.0615.0674-.1368c1.0351-2.5527,1.0879-5.542.1045-7.1123a6.1246,6.1246,0,0,0-4.5479-2.8476c-1.8555-.2012-4.5527.084-6.0215,1.2353-.7539.5616-1.0224,2.0284-1.1084,2.9815-.0263.2011-.0361.3877.0342.4.0518.041.168-.0684.32-.1993a7.4212,7.4212,0,0,1,3.0489-1.5156,5.5854,5.5854,0,0,1,3.43.3985,3.7757,3.7757,0,0,1,1.9786,2.9287,4.6486,4.6486,0,0,1-.0684,1.5166l-.041.2685-.1973-.1865c-2.1279-2.0049-3.4863-2.5859-5.3808-2.29a4.6647,4.6647,0,0,0-2.77,1.6425c-.4756.44-1.6924,2.1661-2.8359,2.6084-2.2647.9209-12.0728.4932-13.49-.3818-.8408-.5117-.7251-1.7988-.6728-2.2539v-.0586c.0142-.3066.188-3.0146.249-4.46a2.9318,2.9318,0,0,0-.541-2.2382,2.521,2.521,0,0,0-1.67-.583,3.5955,3.5955,0,0,0-2.2261,1.0361,23.0091,23.0091,0,0,0-4.727,5.2539c-.0782.0986-.1783.2861-.2549.31-.16.0557-.16-.1845-.14-.2841.0088-2.0811.2451-7.76.2451-8.0381.4307-8.1924,1.2627-14.4815,1.5167-16.1953l.0141-.0562c.0191-.1279.03-.2808-.0141-.2808-.0967-.0571-.21.042-.2227.0567,0,0-3.8809,3.2739-3.8809,3.2583a2.9462,2.9462,0,0,0-.4072.4536,1.8884,1.8884,0,0,0-.1758.6914l-.0112.1109c-.3452,2.979-.82,7.0541-.9922,11.9086-.2817,7.7569-.249,11.55-.1528,15.5264.0278,1.0215.5469,1.3242.8608,1.3906.1.0323,1.0352.2735,1.4243-.47a35.0773,35.0773,0,0,1,6.9868-9.6982.5874.5874,0,0,1,.5162-.2315c.2187.0606.206.27.1948.5137l-.1021,1.2949c-.041.56-.0639,1.0713-.1079,2.3184-.0478,1.2334.0669,4.1924,2.063,5.3134,2.0742,1.1465,12.3389.9463,12.3389.9463,3.3164.045,3.8633-.61,4.51-1.3779a4.4137,4.4137,0,0,0,.6983-1.2139,4.9089,4.9089,0,0,0,2.417,2.4463,7.1739,7.1739,0,0,0,5.9746-.4922,7.2138,7.2138,0,0,0,1.3848-1.01l.1152-.08.0889.08a11.1054,11.1054,0,0,0,1.5918,1.0576,10.8885,10.8885,0,0,0,4.5263.7607c2.8858-.09,3.9063-1.3857,4.1338-2.2.041-.1787.0869-.3877.1279-.6054a4.4233,4.4233,0,0,0,1.334,1.7744c1.7676,1.4453,4.5157,1.625,7.208,1.57a12.8509,12.8509,0,0,0,6.9815-2.1934,8.84,8.84,0,0,0,3.4326-7.9775" transform="translate(-163.48 -377.9649)" fill="#fff"/><path d="M271.5918,425.7578a13.9018,13.9018,0,0,0-6.9336-5.35,16.2507,16.2507,0,0,0-5.74-.9531s-2.7359-.061-4.24-.1777a4.1121,4.1121,0,0,1-1.9712-.6983c-.2382-.1777-.2929-.3256-.4619-.3256-.1719.0307-.1719.4536-.1992.8369-.2168,2.7026-.936,11.7295-1.0527,13.94-.0933,2.0547-.1382,5.3252-.1582,8.21a.7509.7509,0,0,0,.104.4755,1.95,1.95,0,0,0,.352.3047l3.2788,1.8838c.1084.0567.2061.1016.2832.0713.0659-.03.0908-.1269.0908-.3564v-.7051l.0342-.3672.043-4.8584.0342-.6816c.0288-1.2168.0659-2.7442.1367-3.9512.082-2.0254.2593-4.084.4111-6.0889h.0161a4.17,4.17,0,0,1,.4668-1.9013,2.4376,2.4376,0,0,1,1.6822-1.1045,8.8766,8.8766,0,0,1,4.872.6552,10.5723,10.5723,0,0,1,4.6358,3.41,10.3462,10.3462,0,0,1,1.5679,3.6269,14.5286,14.5286,0,0,1-1.189,8.545,10.0227,10.0227,0,0,1-6.7847,5.1689,20.7883,20.7883,0,0,1-4.2041.4531c-1.7471.01-8.5019-.8408-9.9722-4.3447-.1469-.3476-.1689-.5166-.3457-.5166-.1792,0-.2133.2012-.2783.5225a8.1252,8.1252,0,0,1-.7119,2.3232c-.3569.624-.86,2.0586-6,1.9727-3.6118-.0742-5.1-.1-6.4761-.9258a1.9331,1.9331,0,0,1-.6977-1.6953c0-.2266.3691-6.9639.4277-7.7637.0283-.2539.0591-.4541-.0727-.5185-.1309-.043-.253.0761-.4322.2363-.664.5664-1.8178,1.5156-2.521,2.1406-.3159.2422-.43.3242-.5161.5078a1.5261,1.5261,0,0,0-.1377.627c-.1211,2.1767-.3349,6.7119-.3349,6.7119l-.0484.0351a7.108,7.108,0,0,1-2.7968.7549,9.0293,9.0293,0,0,1-4.75-.9775,2.0284,2.0284,0,0,1-.97-1.3154,2.76,2.76,0,0,1,.3-1.9541c.4829-.7676,2.709-3.9776,2.709-3.9776.2119-.3555.2271-.4668.1812-.6269a.9639.9639,0,0,0-.3452-.4649c-.2808-.2422-.8052-.543-1.399-.9414,0,0-.4228-.2695-.5249-.334a.3745.3745,0,0,0-.5351.0557,12.6729,12.6729,0,0,0-2.795,8.1308,6.96,6.96,0,0,0,2.0249,4.9112,8.0366,8.0366,0,0,0,5.9981,1.9463,6.2682,6.2682,0,0,0,3.94-1.6465l.1211-.0986.0982.0986a2.907,2.907,0,0,0,.8657.7226c2.0571,1.1465,6.729,1.1582,9.1851,1.1465,5.3139-.0508,6.9492-1.6543,7.42-3.0918a5.411,5.411,0,0,0,1.0561,1.3389c1.9991,1.7939,6.1358,2.1143,8.4131,2.1211a24.89,24.89,0,0,0,8.6148-1.1846,13.169,13.169,0,0,0,5.9633-4.3535,16.49,16.49,0,0,0,3.0479-10.2539,15.2564,15.2564,0,0,0-2.7793-9.3809" transform="translate(-163.48 -377.9649)" fill="#fff"/><path d="M188.5659,443.7188h.0362a12.3962,12.3962,0,0,1-3.128-2.2188c-.7212-.84-1.2861-1.6172-.021-2.792a6.81,6.81,0,0,1,1.8838-.9775c.4312,2.1357,1.229,5.9883,1.229,5.9883m8.8921-2.69a4.4579,4.4579,0,0,0,.2769-4.8232c-1.1148-2.418-3.4649-3.6719-6.9361-3.3584-.7827-3.3731-3.2319-13.4541-3.2627-13.647a1.4089,1.4089,0,0,0-.52-.8,2.0484,2.0484,0,0,0-.9663-.2,3.4641,3.4641,0,0,0-2.0366.5542,4.017,4.017,0,0,0-1.2163,1.8428c-.6138,1.4365-1.6529,3.73-2.9927,6.6123q-1.3565,2.8652-3.0874,6.57c-1.438,3.0469-5.1338,10.165-5.5068,10.8623a3.0192,3.0192,0,0,1-1.15,1.1875,3.2956,3.2956,0,0,1-2.5372.0781,2.9334,2.9334,0,0,1-1.7968-1.9629,3.3133,3.3133,0,0,1-.0982-1.2587,3.68,3.68,0,0,1,1.1192-2.251c.0869-.0694.144-.128.144-.1963-.0161-.0742-.1059-.0742-.2163-.041a4.5916,4.5916,0,0,0-3.1738,3.7773c0,.1289-.021.2568-.021.3818a5.7436,5.7436,0,0,0,2.95,4.7881c.9946.5518,4.8447,2.1133,7.1118-.2558a18.8381,18.8381,0,0,0,2.73-4.461c1.1362-2.24,3.8149-7.73,4.2451-8.6816.4639-.9326,3.0259-6.2617,4.334-8.8672l.1958-.3555,1.477,7.3135c-3.1509,1.2022-4.53,2.9893-5.1128,5.5362-.684,2.747,1.8951,6.6669,8.3658,9.7021a30.0905,30.0905,0,0,0,3.937,1.377c.9829.121,1.102-.3321,1.1372-.5674a5.7151,5.7151,0,0,0-.2842-1.7842c-.2-.8242-2.0669-8.1192-2.769-11.22,1.8769-.1143,3.4062.2382,4.3139,1.414a4.3365,4.3365,0,0,1,.9492,2.61c0,.3681-.0122.4062.044.4238.0688.0273.1518-.0391.353-.3008" transform="translate(-163.48 -377.9649)" fill="#fff"/><path d="M222.979,431.84c.43-.4424,1.165-1.2608,1.521-1.6748.0991-.1.1372-.1719.2188-.1719.1093,0,.145.0557.2543.1406.5157.4151,1.3829,1.1221,1.68,1.4043a3.2,3.2,0,0,1,.9522,2.1543,2.6218,2.6218,0,0,1-.063.8682,7.4914,7.4914,0,0,1-.8779,2.3467c-.0459.0859-.126.248-.2159.2128-.0922-.0283-.0791-.1972-.0683-.34,0-.127,0-.1807-.0108-.3359a3.2989,3.2989,0,0,0-.8378-2.0967,26.1415,26.1415,0,0,0-2.5113-1.9834c-.1221-.084-.1538-.1172-.1821-.2422-.0137-.0879.0283-.1143.1411-.2822" transform="translate(-163.48 -377.9649)" fill="#fff"/><path d="M299.3262,440.0547a.2369.2369,0,0,0,0-.3017c-.437-.44-1.6441-1.6231-2.0674-2.0489a.1982.1982,0,0,0-.2837-.0156c-.4233.4258-1.6719,1.6543-2.0879,2.08a.2433.2433,0,0,0,0,.2861c.4429.4356,1.6489,1.6426,2.0879,2.0664a.1912.1912,0,0,0,.2837,0c.4233-.4238,1.63-1.6308,2.0674-2.0664" transform="translate(-163.48 -377.9649)" fill="#fff"/><path d="M413.0957,411.3545c-1.4883-1.5727-6.18.6714-9.2266,4.125a27.729,27.729,0,0,0-4.3066,7.4082c.66-.084,5.3672-2.3608,9.5146-5.6211,1.6221-1.2749,5.5167-4.3476,4.0186-5.9121m-2.1582,50.044c-5.0635,1.872-13.293,3.3574-20.7969,1.3828a26.6072,26.6072,0,0,1-3.7636-1.2891c8.7822,7.7393,17.3164,11.0576,22.705,8.0781,6.9541-3.8339,13.1592-10.4619,17.6758-18.4814-4.4687,5.2109-10.6543,8.4053-15.82,10.31M404.1768,433.37c-1.6182-.3525-3.5772,4.7178-1.5469,5.1719a3.4659,3.4659,0,0,0,.8642.0606h0a11.0227,11.0227,0,0,0,2.96-.6035c-.1631-2.9942-.9639-4.3418-2.2773-4.629m-13.2413-21.0522c2.3008,1.1948,1.9454,4.4526,2.752,7.314a3.9748,3.9748,0,0,0,3.166,3.0957s4.8242-9.3086.709-16.8438c-4.127-7.5371-10.8936-4.917-12.627-4.0913-2.3,1.0923-11.1,6.7651-15.5195,18.688-4.3691,11.8057,1.93,15.8525,5.8252,16.5234,3.8818.6768,9.8643-3.2627,10.0635-5.2793.1045-1.0615-.6836-1.73-1.8506-1.9961-1.17-.2646-4.3311.41-6.332-1.9775-2.4756-2.9541,1.7881-9.4751,4.1513-11.7812,2.4688-2.4043,6.1006-5.503,9.6621-3.6519m21.6036,32.022c.5488-.5606,2.1972-2.1836,2.7548-2.7451a.2619.2619,0,0,1,.375.0224c.5577.5606,2.1514,2.1211,2.7276,2.7012a.3133.3133,0,0,1,0,.3994c-.5762.5732-2.17,2.166-2.7276,2.7275a.2569.2569,0,0,1-.375,0c-.58-.5615-2.17-2.1543-2.7548-2.7275a.3207.3207,0,0,1,0-.3779m-16.0313-10.1045c-.5762.5713-2.1709,2.164-2.7285,2.7265a.2553.2553,0,0,1-.375,0c-.5791-.5625-2.17-2.1552-2.7539-2.7265a.3225.3225,0,0,1,0-.3789c.5488-.5616,2.1973-2.1836,2.7539-2.7442a.2618.2618,0,0,1,.375.02c.5576.5616,2.1523,2.1211,2.7285,2.7022a.3148.3148,0,0,1,0,.4m16.4746-33.8706c-.5781.5727-2.1719,2.166-2.7285,2.727a.256.256,0,0,1-.375,0c-.58-.561-2.17-2.1543-2.7549-2.727a.3211.3211,0,0,1,0-.378c.5489-.562,2.1963-2.184,2.7549-2.7451a.2641.2641,0,0,1,.375.021c.5566.562,2.15,2.1221,2.7285,2.7022a.3165.3165,0,0,1,0,.4m-3.4277,56.5346c11.166-4.0625,14.666-10.1982,17.1875-14.43,5.333-8.9883,5.4785-19.0909,5.0254-22.0332l.0078-.1377c-.2842-2.4683-.9746-4.9024-1.5225-4.938-2.3076-.1343-5.497,16.4106-7.3174,25.6079a8.7722,8.7722,0,0,1-.84,2.8467,7.0791,7.0791,0,0,1-.9512,1.415c-.33.3643-.8447.7227-.7129.0264,4.209-22.2832,6.9-34.2373,9.3477-39.0513a1.96,1.96,0,0,1,.8525-.97q-.7015-1.5828-1.5459-3.12c-13.1728-23.8423-48.1757-29.7584-67.7324-18.9561-8.49,4.708-7.7344,27.022,3.6348,49.68-1.084-6.3428.3838-11.9864,3.541-18.5191,4.26-8.8193,17.8242-21.5771,28.0371-17.6421,8.7188,3.3492,5.36,17.063,5.36,17.063s6.0537-8.0888,10.8877-8.3408c2.55-.1323,6.9062,1.7407,1.6582,10.2949-6.1456,10.023-16.3936,14.51-19.9922,12.4165-3.1543-1.834-3.2168-5.416-3.42-6.3715-.205-.9532-.7187-4.15-3.6582-4.3834-2.9365-.2338-8.2451,3.8521-7.5752,5.667.5772,1.5821,4.4571.3252,6.2549,1.4493,1.8028,1.1318,2.4864,2.81,1.8369,5.7773-1.9209,8.8525-9.2851,14.1572-14.4287,12.9092a12.5955,12.5955,0,0,1-3.48-1.41c1.59,2.5352,3.2441,4.94,4.94,7.1992l1.5225-2.6093a.25.25,0,0,1,.2314-.128,14.0519,14.0519,0,0,0,8.2617-2.4248c-1.3115,4.3037-3.0635,7.0762-8.9951,6.4981.0645.082.127.164.1914.2461,1.1133.5508,2.4121,1.123,3.9336,1.7031,8.8135,3.3584,16.6895-1.0977,18.0723-2.0088,1.1-.7256,5.57-3.3545,7.4541-6.9219a11.2677,11.2677,0,0,1-2.2569.1143c-.5654-.03-1.1132-.0859-1.2841-.09-.8809-.03-5.5186-.7627-2.5079-7.753.54-1.25,2.5625-6.09,5.4659-5.0176a5.5086,5.5086,0,0,1,3.73,4.5118c.1192.5693.2032,1.1347.2686,1.6992a11.4779,11.4779,0,0,0,5.417-7.4063c.5068-2.8711-.1485-4.3359-.9522-4.4716-1.0937-.1885-3.0615,5.2529-3.3681,5.0917-.3037-.1591.01-.9091.25-1.7285,1.8789-6.3784,4.6552-8.7983,5.5918-8.8042.9355-.0092,2.18,2.9331,2.19,6.8492.0166,6.1533-3.6143,13.2666-9.2832,15.99a16.0969,16.0969,0,0,1-2.9775,7.1035,22.2743,22.2743,0,0,1-22.4122,7.4707c-.8925-.2012-1.7334-.4316-2.5312-.6816q1.374,1.4868,2.7578,2.8388c.3574.08,1.0234.2237,2.3047.4414a50.0662,50.0662,0,0,0,23.5293-2.5625" transform="translate(-163.48 -377.9649)" fill="#fff"/></svg>